<svg version="1.1" xmlns="http://www.w3.org/2000/svg" viewBox="0 0 5144.611111111117 1906.2460317460327" width="5144.611111111117" height="1906.2460317460327">
  <!-- svg-source:excalidraw -->
  
  <defs>
    <style class="style-fonts">
      @font-face {
        font-family: "Virgil";
        src: url("https://excalidraw.com/Virgil.woff2");
      }
      @font-face {
        font-family: "Cascadia";
        src: url("https://excalidraw.com/Cascadia.woff2");
      }
    </style>
  </defs>
  <rect x="0" y="0" width="5144.611111111117" height="1906.2460317460327" fill="#ffffff"></rect><g stroke-linecap="round" transform="translate(1696.0317460317578 255.44444444444423) rotate(0 207.77777777777783 357.7777777777778)"><path d="M32 0 M32 0 C160.49 -0.11, 290.62 -0.09, 383.56 0 M32 0 C141.52 -1.22, 250.86 -1.16, 383.56 0 M383.56 0 C403.59 0.46, 416.32 9.93, 415.56 32 M383.56 0 C402.99 1.91, 417.69 8.53, 415.56 32 M415.56 32 C415.05 187.97, 415.69 343.47, 415.56 683.56 M415.56 32 C413.11 177.61, 413.18 323.67, 415.56 683.56 M415.56 683.56 C414.21 703, 403.64 713.98, 383.56 715.56 M415.56 683.56 C417.83 703.8, 406.07 715.03, 383.56 715.56 M383.56 715.56 C268.42 714.35, 155.13 714.44, 32 715.56 M383.56 715.56 C253.54 716.32, 124.35 715.83, 32 715.56 M32 715.56 C11.78 715.79, 0.82 705.93, 0 683.56 M32 715.56 C11.96 716.49, 2.22 702.84, 0 683.56 M0 683.56 C0.87 491.65, 1.67 301.78, 0 32 M0 683.56 C2.48 473.4, 2.18 263.07, 0 32 M0 32 C-0.28 9.06, 9.16 -0.6, 32 0 M0 32 C1.7 11.42, 9.23 0, 32 0" stroke="#000000" stroke-width="1" fill="none"></path></g><g stroke-linecap="round"><g transform="translate(1753.253968253979 335.6666666666664) rotate(0 144.00027295359405 -1.3416326337101765)"><path d="M0 -0.06 C48.18 -0.05, 241.26 -0.39, 289.46 -0.67 M-1.46 -1.14 C46.57 -1.43, 240.42 -2.67, 288.75 -2.62" stroke="#000000" stroke-width="1" fill="none"></path></g></g><mask></mask><g transform="translate(1870.253968253979 296.6666666666664) rotate(0 31.1376953125 12)"><text x="0" y="0" font-family="Helvetica, Segoe UI Emoji" font-size="20px" fill="#000000" text-anchor="start" style="white-space: pre;" direction="ltr" dominant-baseline="text-before-edge">header</text></g><g stroke-linecap="round" transform="translate(1768.253968253979 390.6666666666664) rotate(0 133.5 22.5)"><path d="M11.25 0 M11.25 0 C110.03 -0.43, 206.39 -0.4, 255.75 0 M11.25 0 C77.47 -0.47, 145.26 0.93, 255.75 0 M255.75 0 C264.31 -1.35, 267.46 1.83, 267 11.25 M255.75 0 C262.56 -1.74, 269.02 5.68, 267 11.25 M267 11.25 C268.83 19.48, 268.61 26.2, 267 33.75 M267 11.25 C267.1 19.8, 266.72 26.42, 267 33.75 M267 33.75 C266.51 41.92, 261.5 46.83, 255.75 45 M267 33.75 C266.87 43.32, 264.64 46.86, 255.75 45 M255.75 45 C161.62 46.81, 64.23 46.15, 11.25 45 M255.75 45 C172.72 42.63, 91.02 42.81, 11.25 45 M11.25 45 C2.29 43.71, 1.65 42.43, 0 33.75 M11.25 45 C3.24 43.22, 0.08 43.22, 0 33.75 M0 33.75 C-1.04 25.18, 1.01 18, 0 11.25 M0 33.75 C0.69 27.16, -0.75 20.43, 0 11.25 M0 11.25 C0.57 3.26, 2.43 -1.84, 11.25 0 M0 11.25 C0.85 3.85, 5.61 -0.51, 11.25 0" stroke="#000000" stroke-width="1" fill="none"></path></g><g stroke-linecap="round" transform="translate(1769.753968253979 470.1666666666664) rotate(0 133.5 22.5)"><path d="M11.25 0 M11.25 0 C67.21 -0.32, 121.06 -2.43, 255.75 0 M11.25 0 C88.3 -2.71, 165.65 -1.6, 255.75 0 M255.75 0 C263.25 -1.87, 266.75 4.32, 267 11.25 M255.75 0 C262.68 -1.52, 264.89 4.6, 267 11.25 M267 11.25 C268.45 17.32, 268.5 23.49, 267 33.75 M267 11.25 C266.32 18.11, 266.09 23.96, 267 33.75 M267 33.75 C268.85 41.66, 265.02 46.48, 255.75 45 M267 33.75 C266.21 41.68, 263 45.37, 255.75 45 M255.75 45 C173.69 44.12, 90.07 43.78, 11.25 45 M255.75 45 C196.42 44.47, 135.59 45.47, 11.25 45 M11.25 45 C3.98 45.12, -1.25 43.03, 0 33.75 M11.25 45 C3.43 47.28, -0.24 42.36, 0 33.75 M0 33.75 C-0.66 24.48, 0.05 20.59, 0 11.25 M0 33.75 C0.21 26.02, 0.3 18.37, 0 11.25 M0 11.25 C1.58 3.73, 1.86 -0.19, 11.25 0 M0 11.25 C1.66 1.61, 2.06 0.31, 11.25 0" stroke="#000000" stroke-width="1" fill="none"></path></g><g stroke-linecap="round" transform="translate(1770.753968253979 609.1666666666665) rotate(0 133.5 126)"><path d="M32 0 M32 0 C79.73 -0.87, 132.48 -0.58, 235 0 M32 0 C111.02 0.52, 189.86 0.96, 235 0 M235 0 C257.63 -1.44, 267.56 11.36, 267 32 M235 0 C255.46 0.33, 265.72 11.22, 267 32 M267 32 C266.07 89.62, 268.1 145.14, 267 220 M267 32 C269.67 76.52, 269.16 121.6, 267 220 M267 220 C266.87 243.11, 255.66 250.28, 235 252 M267 220 C267.04 243.55, 257.79 251.2, 235 252 M235 252 C159.47 254.52, 84.57 252.78, 32 252 M235 252 C192.49 252.66, 151.77 253.41, 32 252 M32 252 C9.27 251.71, 1.19 242.36, 0 220 M32 252 C8.77 253.63, -0.96 241.1, 0 220 M0 220 C-0.03 181.82, -0.83 141.39, 0 32 M0 220 C1.04 175.39, 2.02 129.72, 0 32 M0 32 C0.48 10.82, 11.72 -1.28, 32 0 M0 32 C-0.35 9.31, 12.24 -1.55, 32 0" stroke="#000000" stroke-width="1" fill="none"></path></g><g transform="translate(1855.894593253979 723.1666666666665) rotate(0 48.359375 12)"><text x="48.359375" y="0" font-family="Helvetica, Segoe UI Emoji" font-size="20px" fill="#000000" text-anchor="middle" style="white-space: pre;" direction="ltr" dominant-baseline="text-before-edge">description</text></g><g transform="translate(1853.253968253979 400.6666666666664) rotate(0 46.1376953125 12)"><text x="0" y="0" font-family="Helvetica, Segoe UI Emoji" font-size="20px" fill="#000000" text-anchor="start" style="white-space: pre;" direction="ltr" dominant-baseline="text-before-edge">categories</text></g><g transform="translate(1870.253968253979 475.6666666666664) rotate(0 33.896484375 12)"><text x="0" y="0" font-family="Helvetica, Segoe UI Emoji" font-size="20px" fill="#000000" text-anchor="start" style="white-space: pre;" direction="ltr" dominant-baseline="text-before-edge">reviews</text></g><g stroke-linecap="round"><g transform="translate(2205.825396825407 298.3333333333331) rotate(0 164.1983899888644 -8.241307878618457)"><path d="M0.3 0.03 C55.08 -2.53, 274.58 -13.68, 329.4 -16.51 M-1 -1 C53.66 -3.23, 274.03 -12.43, 329.01 -14.89" stroke="#c92a2a" stroke-width="1" fill="none"></path></g></g><mask></mask><g stroke-linecap="round"><g transform="translate(2084.1587301587406 144.99999999999977) rotate(0 64.43266348835846 169.8355471338487)"><path d="M-0.7 1.02 C13.98 12.46, 66.08 34.6, 87.78 69.35 C109.48 104.09, 128.14 164.54, 129.51 209.51 C130.89 254.48, 101.57 317.57, 96.01 339.16 M1.14 0.51 C15.78 11.58, 66.19 33.21, 87.42 67.76 C108.64 102.3, 127.08 162.91, 128.49 207.79 C129.91 252.67, 100.99 315.03, 95.92 337.04" stroke="#c92a2a" stroke-width="1" fill="none"></path></g></g><mask></mask><g transform="translate(2575.8253968254085 254.9999999999999) rotate(0 37.3447265625 16.799999999999997)"><text x="0" y="0" font-family="Helvetica, Segoe UI Emoji" font-size="28px" fill="#c92a2a" text-anchor="start" style="white-space: pre;" direction="ltr" dominant-baseline="text-before-edge">Home</text></g><g stroke-linecap="round"><g transform="translate(1992.4920634920754 70) rotate(0 -45.68829638418106 106.03421869497132)"><path d="M0.96 -0.13 C-14.33 35.14, -76.16 176.48, -91.49 211.74 M0.01 -1.25 C-15.45 34.23, -77.1 177.67, -92.34 213.32" stroke="#000000" stroke-width="1" fill="none"></path></g></g><mask></mask><g transform="translate(1965.8253968254085 10) rotate(0 45.9169921875 16.80000000000001)"><text x="0" y="0" font-family="Helvetica, Segoe UI Emoji" font-size="28px" fill="#087f5b" text-anchor="start" style="white-space: pre;" direction="ltr" dominant-baseline="text-before-edge">Header</text></g><g stroke-linecap="round" transform="translate(2834.71428571429 272.22222222222234) rotate(0 207.77777777777783 357.7777777777778)"><path d="M32 0 M32 0 C136.53 0.37, 242.35 2.17, 383.56 0 M32 0 C113.7 2.01, 197 2.01, 383.56 0 M383.56 0 C406.6 0.8, 414.64 9.26, 415.56 32 M383.56 0 C405.35 -1.1, 417.19 12.8, 415.56 32 M415.56 32 C415.23 204.77, 415.65 379.22, 415.56 683.56 M415.56 32 C417.44 262.36, 418.01 491.82, 415.56 683.56 M415.56 683.56 C417.22 706.09, 405.25 714.71, 383.56 715.56 M415.56 683.56 C416.5 706.98, 403.2 715, 383.56 715.56 M383.56 715.56 C292.78 714.73, 199.86 715.23, 32 715.56 M383.56 715.56 C245.29 716.02, 108.37 715.31, 32 715.56 M32 715.56 C9.49 713.6, 1.75 706.57, 0 683.56 M32 715.56 C10.57 716.92, -0.62 706.7, 0 683.56 M0 683.56 C0.81 501.72, -0.09 319.84, 0 32 M0 683.56 C1.69 442.36, 1.78 201.26, 0 32 M0 32 C-0.97 10.68, 11.56 0.62, 32 0 M0 32 C1.65 10.76, 8.84 0.17, 32 0" stroke="#c92a2a" stroke-width="1" fill="none"></path></g><g stroke-linecap="round"><g transform="translate(2891.9365079365116 352.4444444444445) rotate(0 143.91418896503774 0.22709592124446942)"><path d="M-0.79 -0.52 C47.27 -0.41, 240.45 0.04, 288.62 0.15 M1 1.83 C48.84 1.67, 239.19 -0.8, 287.47 -1.37" stroke="#000000" stroke-width="1" fill="none"></path></g></g><mask></mask><g transform="translate(3008.9365079365116 313.4444444444445) rotate(0 31.1376953125 12)"><text x="0" y="0" font-family="Helvetica, Segoe UI Emoji" font-size="20px" fill="#000000" text-anchor="start" style="white-space: pre;" direction="ltr" dominant-baseline="text-before-edge">header</text></g><g stroke-linecap="round" transform="translate(2900.825396825402 410.0000000000004) rotate(0 147.22222222222217 36.111111111111114)"><path d="M18.06 0 M18.06 0 C118.73 -1.01, 216.69 -1.38, 276.39 0 M18.06 0 C97.39 1.6, 178.33 1.17, 276.39 0 M276.39 0 C288.77 1.92, 293.36 7.5, 294.44 18.06 M276.39 0 C290.18 -0.09, 293.8 7.64, 294.44 18.06 M294.44 18.06 C294.61 31.71, 295.49 42.34, 294.44 54.17 M294.44 18.06 C293.65 27.03, 294.95 38, 294.44 54.17 M294.44 54.17 C296.27 65.74, 288.2 72.17, 276.39 72.22 M294.44 54.17 C294.62 65.46, 287.47 70.32, 276.39 72.22 M276.39 72.22 C188.97 70.91, 100.15 70.8, 18.06 72.22 M276.39 72.22 C210.08 73.93, 143.92 73.64, 18.06 72.22 M18.06 72.22 C5.32 74.15, 1.3 67.34, 0 54.17 M18.06 72.22 C4.72 70.51, -2.25 67.52, 0 54.17 M0 54.17 C-0.05 39.97, -2.07 27.18, 0 18.06 M0 54.17 C0.23 43.16, -0.9 33.06, 0 18.06 M0 18.06 C0.63 5.17, 4.88 0.2, 18.06 0 M0 18.06 C0.95 4.11, 7.55 -0.89, 18.06 0" stroke="#000000" stroke-width="1" fill="none"></path></g><g stroke-linecap="round" transform="translate(2900.2698412698473 510.5555555555559) rotate(0 147.22222222222217 36.111111111111114)"><path d="M18.06 0 M18.06 0 C114.49 -1.42, 209.13 -0.89, 276.39 0 M18.06 0 C91.26 -1.02, 163.32 -0.94, 276.39 0 M276.39 0 C289.06 -0.85, 293.31 6.22, 294.44 18.06 M276.39 0 C289.37 -1.9, 295.97 5.13, 294.44 18.06 M294.44 18.06 C292.89 24.69, 292.78 32.95, 294.44 54.17 M294.44 18.06 C293.7 27.45, 293.69 36.99, 294.44 54.17 M294.44 54.17 C293.7 67.42, 287.24 74.05, 276.39 72.22 M294.44 54.17 C294 67.24, 286.34 73.01, 276.39 72.22 M276.39 72.22 C208.53 71.22, 140.1 73.14, 18.06 72.22 M276.39 72.22 C184.85 70.57, 94.49 71.36, 18.06 72.22 M18.06 72.22 C6.01 73.51, -1.64 67.61, 0 54.17 M18.06 72.22 C7.31 72.76, 1.71 67.82, 0 54.17 M0 54.17 C-0.99 42.46, -0.06 32.52, 0 18.06 M0 54.17 C0.13 46.8, 0.4 38.26, 0 18.06 M0 18.06 C-1.12 6.85, 5.34 0.2, 18.06 0 M0 18.06 C-0.82 6.93, 7.84 0.36, 18.06 0" stroke="#000000" stroke-width="1" fill="none"></path></g><g stroke-linecap="round" transform="translate(2894.714285714291 620.5555555555559) rotate(0 147.22222222222217 36.111111111111114)"><path d="M18.06 0 M18.06 0 C102.49 2.35, 185.59 3.3, 276.39 0 M18.06 0 C81.79 1.7, 145.98 1.99, 276.39 0 M276.39 0 C286.78 1.41, 295.56 6.48, 294.44 18.06 M276.39 0 C290.13 1.62, 294.1 7.36, 294.44 18.06 M294.44 18.06 C294.45 30.56, 292.52 44.58, 294.44 54.17 M294.44 18.06 C294.74 28, 293.89 39.76, 294.44 54.17 M294.44 54.17 C293.76 66.4, 287.71 73.02, 276.39 72.22 M294.44 54.17 C296.27 66.56, 289.45 70.63, 276.39 72.22 M276.39 72.22 C196.29 73.8, 118.38 74.2, 18.06 72.22 M276.39 72.22 C193.56 73.59, 111.29 74.55, 18.06 72.22 M18.06 72.22 C6.01 70.78, 1.96 64.48, 0 54.17 M18.06 72.22 C3.96 72.82, -1.41 64.06, 0 54.17 M0 54.17 C-2.07 45.29, -1.16 35.42, 0 18.06 M0 54.17 C0.46 44.94, 0.26 33.64, 0 18.06 M0 18.06 C0.94 5.1, 4.71 -0.88, 18.06 0 M0 18.06 C-2.05 6.62, 5.81 1.39, 18.06 0" stroke="#000000" stroke-width="1" fill="none"></path></g><g stroke-linecap="round" transform="translate(2898.0476190476256 737.2222222222227) rotate(0 147.22222222222217 36.1111111111111)"><path d="M18.06 0 M18.06 0 C88.25 0.43, 156.55 -0.94, 276.39 0 M18.06 0 C106.02 0.11, 195.2 -0.08, 276.39 0 M276.39 0 C289.31 -1.39, 294.6 6.32, 294.44 18.06 M276.39 0 C289.68 -0.85, 295.09 7.44, 294.44 18.06 M294.44 18.06 C296.43 30.59, 292.98 44.53, 294.44 54.17 M294.44 18.06 C295.42 29.57, 293.55 43.06, 294.44 54.17 M294.44 54.17 C293.22 64.34, 287.19 73.13, 276.39 72.22 M294.44 54.17 C293.13 64.02, 288.1 71.08, 276.39 72.22 M276.39 72.22 C218.09 71.58, 162.98 71.26, 18.06 72.22 M276.39 72.22 C210.77 70.92, 145.49 71.48, 18.06 72.22 M18.06 72.22 C5.84 73.43, -0.28 64.4, 0 54.17 M18.06 72.22 C6.62 72.42, -0.46 63.99, 0 54.17 M0 54.17 C1.57 43.64, -0.47 34.91, 0 18.06 M0 54.17 C-0.87 40.85, -0.45 28.69, 0 18.06 M0 18.06 C-1.12 5.47, 7.29 -1, 18.06 0 M0 18.06 C-0.01 6.31, 6.14 -0.23, 18.06 0" stroke="#000000" stroke-width="1" fill="none"></path></g><g stroke-linecap="round" transform="translate(2902.492063492068 855.0000000000005) rotate(0 147.22222222222217 36.111111111111114)"><path d="M18.06 0 M18.06 0 C72.29 -2.03, 127.5 0.19, 276.39 0 M18.06 0 C80.38 -0.34, 143.32 -0.13, 276.39 0 M276.39 0 C287.24 0.54, 296.05 6.16, 294.44 18.06 M276.39 0 C287.32 1.08, 293.39 4.51, 294.44 18.06 M294.44 18.06 C293.94 28.51, 293.85 34.73, 294.44 54.17 M294.44 18.06 C293.51 29.63, 295.28 42, 294.44 54.17 M294.44 54.17 C296.3 65.77, 288.25 73.14, 276.39 72.22 M294.44 54.17 C295.57 67.11, 288.24 70.54, 276.39 72.22 M276.39 72.22 C216.66 71.18, 159.75 70.82, 18.06 72.22 M276.39 72.22 C198.88 71.81, 121.22 72.08, 18.06 72.22 M18.06 72.22 C7.71 72.82, -1.58 64.49, 0 54.17 M18.06 72.22 C7.53 70.03, 1.77 68.4, 0 54.17 M0 54.17 C-1.03 46.75, -0.79 38.77, 0 18.06 M0 54.17 C-0.5 42.85, -0.95 32.07, 0 18.06 M0 18.06 C0.1 4.24, 7.42 -0.51, 18.06 0 M0 18.06 C-1.16 4.94, 6.81 -1.91, 18.06 0" stroke="#000000" stroke-width="1" fill="none"></path></g><g stroke-linecap="round"><g transform="translate(3199.714285714291 552.2222222222226) rotate(0 132.07934957543193 -132.80108877552055)"><path d="M-0.17 -1.08 C44.16 -45.63, 221.62 -222.11, 265.87 -266.56 M-1.71 0.96 C42.5 -43.44, 220.73 -220.29, 265.09 -264.97" stroke="#c92a2a" stroke-width="1" fill="none"></path></g></g><mask></mask><g transform="translate(3476.3809523809578 233.33333333333354) rotate(0 89.46875 16.80000000000001)"><text x="0" y="0" font-family="Helvetica, Segoe UI Emoji" font-size="28px" fill="#c92a2a" text-anchor="start" style="white-space: pre;" direction="ltr" dominant-baseline="text-before-edge">ListOfReviews</text></g><g stroke-linecap="round"><g transform="translate(2039.9166666666706 493.15079365079384) rotate(0 396.020843822444 -21.457846812540662)"><path d="M0.03 -0.66 C132.34 -8.09, 661.31 -37.23, 793.46 -44.53 M-1.42 1.61 C130.72 -5.67, 659.45 -35.78, 792.23 -43.27" stroke="#364fc7" stroke-width="1" fill="none"></path></g></g><mask></mask><g stroke-linecap="round" transform="translate(2832.1388888888923 1117.373015873016) rotate(0 207.77777777777783 357.7777777777778)"><path d="M32 0 M32 0 C114.75 -0.73, 195.24 -0.54, 383.56 0 M32 0 C119 -1.3, 204.81 -0.48, 383.56 0 M383.56 0 C405.1 1.79, 415.37 10.33, 415.56 32 M383.56 0 C405.63 0.28, 415.18 11.95, 415.56 32 M415.56 32 C413.87 198.58, 413.06 364.79, 415.56 683.56 M415.56 32 C415.37 268.2, 415.4 504.27, 415.56 683.56 M415.56 683.56 C414.2 704.81, 403.18 716.72, 383.56 715.56 M415.56 683.56 C413.78 707.15, 403.31 713.93, 383.56 715.56 M383.56 715.56 C283.59 714.16, 182.55 712.66, 32 715.56 M383.56 715.56 C304.86 713.75, 226.1 713.12, 32 715.56 M32 715.56 C11.17 716.86, 0.61 706.65, 0 683.56 M32 715.56 C11 716.24, 1.82 706.79, 0 683.56 M0 683.56 C1.6 549.08, 2.31 415.28, 0 32 M0 683.56 C1.69 424.08, 1.51 164.45, 0 32 M0 32 C-1.1 9.86, 9.23 1.93, 32 0 M0 32 C-0.81 10.83, 10.37 0.27, 32 0" stroke="#862e9c" stroke-width="1" fill="none"></path></g><g stroke-linecap="round"><g transform="translate(2889.361111111113 1197.595238095238) rotate(0 144.61567449651693 -0.6253859930903332)"><path d="M0.47 -1.19 C48.37 -1.48, 239.88 -2.22, 287.86 -2.02 M-0.74 0.8 C47.47 0.66, 241.97 -0.59, 289.97 -1.02" stroke="#000000" stroke-width="1" fill="none"></path></g></g><mask></mask><g transform="translate(3006.361111111113 1158.595238095238) rotate(0 31.1376953125 12)"><text x="0" y="0" font-family="Helvetica, Segoe UI Emoji" font-size="20px" fill="#000000" text-anchor="start" style="white-space: pre;" direction="ltr" dominant-baseline="text-before-edge">header</text></g><g stroke-linecap="round" transform="translate(2890.9166666666706 1258.5396825396829) rotate(0 147.22222222222217 36.111111111111086)"><path d="M18.06 0 M18.06 0 C99.04 1.21, 180.79 0.4, 276.39 0 M18.06 0 C81.28 -1.39, 144.43 -1.65, 276.39 0 M276.39 0 C289.29 1.04, 296.14 4.33, 294.44 18.06 M276.39 0 C287.78 -0.04, 294.52 4.51, 294.44 18.06 M294.44 18.06 C293.55 27.81, 293.46 40.11, 294.44 54.17 M294.44 18.06 C295.46 26.71, 295.01 35.38, 294.44 54.17 M294.44 54.17 C295.75 68.07, 289.13 72.75, 276.39 72.22 M294.44 54.17 C293.46 66.53, 286.94 73.21, 276.39 72.22 M276.39 72.22 C202.7 72.13, 126.33 72.94, 18.06 72.22 M276.39 72.22 C207.73 71.41, 139.72 71.63, 18.06 72.22 M18.06 72.22 C6.45 70.67, -0.74 67.65, 0 54.17 M18.06 72.22 C7.05 72.63, -0.49 64.89, 0 54.17 M0 54.17 C0.95 47.86, -1.43 40.01, 0 18.06 M0 54.17 C-0.55 45.82, -0.39 35.93, 0 18.06 M0 18.06 C-0.63 7.24, 7.82 0.13, 18.06 0 M0 18.06 C-1.05 6.2, 5.7 -0.09, 18.06 0" stroke="#000000" stroke-width="1" fill="none"></path></g><g stroke-linecap="round" transform="translate(2890.361111111116 1359.0952380952383) rotate(0 147.22222222222217 36.11111111111114)"><path d="M18.06 0 M18.06 0 C93.84 0.52, 169.45 -0.43, 276.39 0 M18.06 0 C99.86 0.07, 181 0.99, 276.39 0 M276.39 0 C289.46 1.69, 292.76 5.46, 294.44 18.06 M276.39 0 C288.39 0.08, 292.93 5.58, 294.44 18.06 M294.44 18.06 C294.21 25.53, 296.37 33.48, 294.44 54.17 M294.44 18.06 C294.1 31.73, 293.69 45.43, 294.44 54.17 M294.44 54.17 C296.31 66.9, 288.96 71.37, 276.39 72.22 M294.44 54.17 C294.77 64.72, 289.41 71.93, 276.39 72.22 M276.39 72.22 C197.31 71.4, 118.6 72.38, 18.06 72.22 M276.39 72.22 C176.75 71.45, 77.49 71.59, 18.06 72.22 M18.06 72.22 C4.47 71.49, 1.45 67.1, 0 54.17 M18.06 72.22 C6.42 71.73, -1.31 63.94, 0 54.17 M0 54.17 C0.96 42.45, 0.38 32.51, 0 18.06 M0 54.17 C0.18 42, -1.06 30.1, 0 18.06 M0 18.06 C1.22 7.82, 6.15 -0.92, 18.06 0 M0 18.06 C0.18 5.7, 5.93 1, 18.06 0" stroke="#000000" stroke-width="1" fill="none"></path></g><g stroke-linecap="round" transform="translate(2884.805555555561 1469.095238095238) rotate(0 147.22222222222217 36.111111111111086)"><path d="M18.06 0 M18.06 0 C72.58 -0.62, 126.08 1.07, 276.39 0 M18.06 0 C117.37 -0.9, 218.18 -0.63, 276.39 0 M276.39 0 C290.12 -1.69, 293.89 5.98, 294.44 18.06 M276.39 0 C288.5 -1.51, 294 4.34, 294.44 18.06 M294.44 18.06 C293.61 32.14, 293.36 44.06, 294.44 54.17 M294.44 18.06 C295.03 28.95, 295.37 42.48, 294.44 54.17 M294.44 54.17 C295.14 66.73, 287.57 72.5, 276.39 72.22 M294.44 54.17 C292.96 67.19, 288.14 72.4, 276.39 72.22 M276.39 72.22 C204.01 74.05, 134.17 74.16, 18.06 72.22 M276.39 72.22 C207.16 71.9, 138.04 71.2, 18.06 72.22 M18.06 72.22 C5.28 73.67, 0.9 66.55, 0 54.17 M18.06 72.22 C5.53 70.91, -2.27 65.82, 0 54.17 M0 54.17 C-1.66 43.66, -1.36 32.95, 0 18.06 M0 54.17 C-0.13 41.01, -0.15 30.3, 0 18.06 M0 18.06 C1.8 6.15, 5.1 0.16, 18.06 0 M0 18.06 C-0.32 5.93, 7.02 -0.19, 18.06 0" stroke="#000000" stroke-width="1" fill="none"></path></g><g stroke-linecap="round" transform="translate(2888.138888888895 1585.761904761905) rotate(0 147.22222222222217 36.111111111111086)"><path d="M18.06 0 M18.06 0 C88.57 -0.97, 162.23 1.29, 276.39 0 M18.06 0 C87.72 1.83, 157.51 2.16, 276.39 0 M276.39 0 C286.74 -0.56, 294.41 6.08, 294.44 18.06 M276.39 0 C286.92 -0.44, 292.76 6.95, 294.44 18.06 M294.44 18.06 C296.15 26.79, 295.78 37.96, 294.44 54.17 M294.44 18.06 C293.44 32.28, 295.22 45.55, 294.44 54.17 M294.44 54.17 C294.98 65.35, 288.71 70.93, 276.39 72.22 M294.44 54.17 C295.43 65.91, 288.61 71.63, 276.39 72.22 M276.39 72.22 C191.05 69.65, 104.57 69.7, 18.06 72.22 M276.39 72.22 C208.98 72.48, 140.8 72.01, 18.06 72.22 M18.06 72.22 C7.47 73.12, 0.35 65.78, 0 54.17 M18.06 72.22 C4.7 69.96, -0.39 66.24, 0 54.17 M0 54.17 C0.22 40.53, 0.4 30.08, 0 18.06 M0 54.17 C-1.03 44.63, 0.5 36.62, 0 18.06 M0 18.06 C0.13 5.1, 6.18 -0.28, 18.06 0 M0 18.06 C-0.09 7.02, 5.83 -1.24, 18.06 0" stroke="#000000" stroke-width="1" fill="none"></path></g><g stroke-linecap="round" transform="translate(2892.5833333333385 1703.5396825396829) rotate(0 147.22222222222217 36.111111111111086)"><path d="M18.06 0 M18.06 0 C84.33 2.12, 153.74 1.38, 276.39 0 M18.06 0 C108.93 0.04, 199.78 -1.05, 276.39 0 M276.39 0 C287.87 -0.04, 294.51 4.71, 294.44 18.06 M276.39 0 C287.98 -1.68, 295.38 5.3, 294.44 18.06 M294.44 18.06 C293.35 29.6, 294.82 39.86, 294.44 54.17 M294.44 18.06 C295.21 28.24, 294.91 36.82, 294.44 54.17 M294.44 54.17 C293.59 66.49, 287.13 73.08, 276.39 72.22 M294.44 54.17 C294.16 66.38, 287.83 73.03, 276.39 72.22 M276.39 72.22 C191.22 75.21, 106.67 73.23, 18.06 72.22 M276.39 72.22 C204.05 71.79, 131.07 73, 18.06 72.22 M18.06 72.22 C6.91 72.57, -0.43 65.06, 0 54.17 M18.06 72.22 C3.75 71.83, 0.04 67.22, 0 54.17 M0 54.17 C-0.93 42.16, 1.05 28.1, 0 18.06 M0 54.17 C-0.21 42.8, 1 30.28, 0 18.06 M0 18.06 C-0.92 6.18, 5.74 -0.08, 18.06 0 M0 18.06 C1 5.83, 4.77 0.65, 18.06 0" stroke="#000000" stroke-width="1" fill="none"></path></g><g stroke-linecap="round"><g transform="translate(2031.9166666666706 415.15079365079384) rotate(0 398.96331498392874 426.05315573251806)"><path d="M0.73 -0.78 C133.96 141.09, 665.23 709.45, 798.28 851.58 M-0.35 1.42 C132.85 143.42, 664.28 710.92, 797.48 852.89" stroke="#364fc7" stroke-width="1" fill="none"></path></g></g><mask></mask><g stroke-linecap="round"><g transform="translate(3185.9166666666706 1411.1507936507937) rotate(0 154.11995281779218 -127.24753235884947)"><path d="M0.76 -0.52 C52.35 -43.1, 257.37 -213.83, 308.54 -256.31 M-0.3 1.81 C51.27 -40.51, 256.68 -211.73, 307.88 -254.93" stroke="#000000" stroke-width="1" fill="none"></path></g></g><mask></mask><g transform="translate(3517.9166666666706 1093.1507936507937) rotate(0 104.2685546875 16.80000000000001)"><text x="0" y="0" font-family="Helvetica, Segoe UI Emoji" font-size="28px" fill="#862e9c" text-anchor="start" style="white-space: pre;" direction="ltr" dominant-baseline="text-before-edge">ListOfCategories</text></g><g stroke-linecap="round" transform="translate(3920.1388888888923 271.373015873016) rotate(0 207.77777777777783 357.7777777777778)"><path d="M32 0 M32 0 C167.43 -3.22, 303.31 -2.11, 383.56 0 M32 0 C105.47 -0.47, 178.29 -0.81, 383.56 0 M383.56 0 C404.96 -1.18, 417.42 11.63, 415.56 32 M383.56 0 C407.06 -2.01, 413.53 9.25, 415.56 32 M415.56 32 C416.38 229.13, 416.09 426.09, 415.56 683.56 M415.56 32 C414.78 284.29, 414.8 537.42, 415.56 683.56 M415.56 683.56 C414.12 706.88, 403.76 715.17, 383.56 715.56 M415.56 683.56 C413.47 703.81, 405.09 714.56, 383.56 715.56 M383.56 715.56 C272.53 715.05, 159.91 713.3, 32 715.56 M383.56 715.56 C243.93 714.27, 104.02 714.47, 32 715.56 M32 715.56 C9.24 716.44, -0.21 706.1, 0 683.56 M32 715.56 C11.87 716.14, -1.65 705.38, 0 683.56 M0 683.56 C0.97 512.84, 0.92 341.79, 0 32 M0 683.56 C-1.46 455.2, -2.03 226.64, 0 32 M0 32 C-1.39 9.23, 12.46 1.71, 32 0 M0 32 C0.76 8.6, 11.7 -1.71, 32 0" stroke="#364fc7" stroke-width="1" fill="none"></path></g><g stroke-linecap="round"><g transform="translate(3977.361111111113 351.59523809523813) rotate(0 143.9548548092789 -0.059708896991210736)"><path d="M-0.01 -1.05 C48.4 -1.41, 241.41 -1.23, 289.39 -1.03 M-1.48 1.01 C46.9 1.37, 240.03 0.92, 288.65 0.49" stroke="#000000" stroke-width="1" fill="none"></path></g></g><mask></mask><g transform="translate(4094.361111111113 312.5952380952382) rotate(0 31.1376953125 12)"><text x="0" y="0" font-family="Helvetica, Segoe UI Emoji" font-size="20px" fill="#000000" text-anchor="start" style="white-space: pre;" direction="ltr" dominant-baseline="text-before-edge">header</text></g><g transform="translate(4026.011904761909 406.6626984126985) rotate(0 95.7099609375 16.799999999999997)"><text x="0" y="0" font-family="Helvetica, Segoe UI Emoji" font-size="28px" fill="#000000" text-anchor="start" style="white-space: pre;" direction="ltr" dominant-baseline="text-before-edge">Review Header</text></g><g stroke-linecap="round" transform="translate(4011.011904761909 472.9126984126985) rotate(0 120.625 93.74999999999997)"><path d="M32 0 M32 0 C82.26 -2.17, 132.63 -3.36, 209.25 0 M32 0 C86.88 -1.22, 141.16 -0.82, 209.25 0 M209.25 0 C229.11 1.02, 239.89 12.11, 241.25 32 M209.25 0 C232.52 -0.72, 240.75 11.87, 241.25 32 M241.25 32 C241.44 66.26, 239.51 98.09, 241.25 155.5 M241.25 32 C242.38 65.74, 242.03 99.81, 241.25 155.5 M241.25 155.5 C241.31 178.59, 228.62 186.81, 209.25 187.5 M241.25 155.5 C243.24 177.92, 228.46 188.55, 209.25 187.5 M209.25 187.5 C142.62 188.91, 73.25 186.98, 32 187.5 M209.25 187.5 C158.85 188.82, 107.42 189.54, 32 187.5 M32 187.5 C10.26 189.44, 0.52 175.71, 0 155.5 M32 187.5 C11.31 186.97, 2.22 175.87, 0 155.5 M0 155.5 C-0.74 116.23, -0.74 76.12, 0 32 M0 155.5 C-1.05 114.54, -1 71.13, 0 32 M0 32 C-0.35 11.8, 9.57 1.29, 32 0 M0 32 C-0.02 8.64, 8.76 -1, 32 0" stroke="#000000" stroke-width="1" fill="none"></path></g><g transform="translate(4109.761904761909 541.6626984126984) rotate(0 22.55859375 16.8)"><text x="0" y="0" font-family="Helvetica, Segoe UI Emoji" font-size="28px" fill="#000000" text-anchor="start" style="white-space: pre;" direction="ltr" dominant-baseline="text-before-edge">img</text></g><g transform="translate(3974.761904761909 739.1626984126985) rotate(0 134.5380859375 16.799999999999997)"><text x="0" y="0" font-family="Helvetica, Segoe UI Emoji" font-size="28px" fill="#000000" text-anchor="start" style="white-space: pre;" direction="ltr" dominant-baseline="text-before-edge">review body ------------</text></g><g transform="translate(3972.0632963634716 788.6126984126986) rotate(0 134.5380859375 16.80000000000001)"><text x="0" y="0" font-family="Helvetica, Segoe UI Emoji" font-size="28px" fill="#000000" text-anchor="start" style="white-space: pre;" direction="ltr" dominant-baseline="text-before-edge">review body ------------</text></g><g stroke-linecap="round"><g transform="translate(3959.761904761909 879.1626984126985) rotate(0 166.6111441043854 -0.9731228251010293)"><path d="M-0.75 0.23 C54.64 0.06, 276.22 -1.91, 331.69 -2.18 M1.05 -0.69 C56.88 -0.65, 278.98 -1.22, 333.98 -1.13" stroke="#000000" stroke-width="1" fill="none"></path></g></g><mask></mask><g transform="translate(4031.011904761909 921.6626984126985) rotate(0 110.455078125 16.80000000000001)"><text x="0" y="0" font-family="Helvetica, Segoe UI Emoji" font-size="28px" fill="#000000" text-anchor="start" style="white-space: pre;" direction="ltr" dominant-baseline="text-before-edge">comments (scroll)</text></g><g stroke-linecap="round"><g transform="translate(3184.0833333333376 654.9126984126987) rotate(0 368.4816347895003 -43.90759642683901)"><path d="M1.05 -1.15 C123.59 -15.86, 612.05 -74.31, 734.42 -88.67 M0.14 0.86 C123.16 -13.71, 614.41 -73.28, 736.83 -87.75" stroke="#000000" stroke-width="1" fill="none"></path></g></g><mask></mask><g stroke-linecap="round"><g transform="translate(4272.714285714286 497.8412698412701) rotate(0 164.5379171443733 -111.474381110913)"><path d="M0.05 -0.8 C55.32 -38.14, 275.33 -187.07, 330.46 -224.35 M-1.39 1.4 C53.87 -35.72, 274.44 -185.4, 329.76 -222.84" stroke="#000000" stroke-width="1" fill="none"></path></g></g><mask></mask><g transform="translate(4602.357142857143 230.69841269841294) rotate(0 75.9951171875 16.80000000000001)"><text x="0" y="0" font-family="Helvetica, Segoe UI Emoji" font-size="28px" fill="#364fc7" text-anchor="start" style="white-space: pre;" direction="ltr" dominant-baseline="text-before-edge">ViewReview</text></g><g stroke-linecap="round" transform="translate(3889.817460317461 1135.7777777777774) rotate(0 207.77777777777783 357.7777777777778)"><path d="M32 0 M32 0 C156.98 -0.84, 283.29 -2.18, 383.56 0 M32 0 C160.91 1.77, 290.57 1.62, 383.56 0 M383.56 0 C403.46 -0.29, 417.41 10.29, 415.56 32 M383.56 0 C405.95 0.19, 416.95 11.63, 415.56 32 M415.56 32 C414.53 169.26, 414.65 306.15, 415.56 683.56 M415.56 32 C412.99 234.26, 413 437.12, 415.56 683.56 M415.56 683.56 C415.51 706.34, 404.33 715.42, 383.56 715.56 M415.56 683.56 C417.74 705.64, 402.85 713.27, 383.56 715.56 M383.56 715.56 C286.28 717.53, 189.63 718.6, 32 715.56 M383.56 715.56 C251.17 717.09, 118.69 716.4, 32 715.56 M32 715.56 C8.69 714.87, 0.67 704.01, 0 683.56 M32 715.56 C10.17 715.19, 1.26 705.87, 0 683.56 M0 683.56 C-0.24 486.98, 0.09 289.51, 0 32 M0 683.56 C-0.52 430.4, -0.41 177.77, 0 32 M0 32 C-0.83 12.49, 8.73 0.7, 32 0 M0 32 C1.42 12.59, 9.06 -0.91, 32 0" stroke="#a61e4d" stroke-width="1" fill="none"></path></g><g stroke-linecap="round"><g transform="translate(3947.039682539682 1215.9999999999995) rotate(0 144.79402038000535 -0.9185859601944912)"><path d="M-0.99 0.2 C46.92 -0.23, 239.79 -2.01, 288.26 -2.04 M0.69 -0.74 C48.91 -1.11, 242.45 -0.87, 290.58 -1.04" stroke="#000000" stroke-width="1" fill="none"></path></g></g><mask></mask><g transform="translate(4064.039682539682 1176.9999999999995) rotate(0 31.1376953125 12)"><text x="0" y="0" font-family="Helvetica, Segoe UI Emoji" font-size="20px" fill="#000000" text-anchor="start" style="white-space: pre;" direction="ltr" dominant-baseline="text-before-edge">header</text></g><g stroke-linecap="round"><g transform="translate(3177.5952380952385 1505.5555555555552) rotate(0 354.1294538050147 -29.81058561019597)"><path d="M-0.07 0.26 C118.13 -9.87, 591.31 -49.7, 709.82 -59.88 M-1.56 -0.65 C116.4 -10.64, 590.06 -48.4, 708.78 -58.28" stroke="#000000" stroke-width="1" fill="none"></path></g></g><mask></mask><g stroke-linecap="round"><g transform="translate(4265.5952380952385 1469.5555555555552) rotate(0 151.0344478685406 -107.95883106180469)"><path d="M-1.11 0.64 C49.34 -35.06, 252.6 -178.92, 303.17 -214.97 M0.52 -0.07 C50.86 -36.02, 252.64 -180.86, 302.84 -216.56" stroke="#000000" stroke-width="1" fill="none"></path></g></g><mask></mask><g transform="translate(4598.500000000001 1231.4126984126983) rotate(0 86.8984375 16.80000000000001)"><text x="0" y="0" font-family="Helvetica, Segoe UI Emoji" font-size="28px" fill="#a61e4d" text-anchor="start" style="white-space: pre;" direction="ltr" dominant-baseline="text-before-edge">ViewCategory</text></g><g stroke-linecap="round" transform="translate(3995.1666666666697 1261.4126984126983) rotate(0 101.66666666666697 95)"><path d="M32 0 M32 0 C59.96 -1.89, 91.04 0.52, 171.33 0 M32 0 C70.73 0.63, 110.56 1.65, 171.33 0 M171.33 0 C192.95 -0.66, 203.31 10.23, 203.33 32 M171.33 0 C194.12 -0.93, 205.6 9.23, 203.33 32 M203.33 32 C202.57 58.46, 202.38 82.61, 203.33 158 M203.33 32 C203.3 63.84, 203.66 93.95, 203.33 158 M203.33 158 C204.24 178.19, 194.55 189.93, 171.33 190 M203.33 158 C201.76 180.47, 192.41 192.21, 171.33 190 M171.33 190 C142.41 188.58, 111.72 189.12, 32 190 M171.33 190 C128.84 190.25, 84.61 188.97, 32 190 M32 190 C10.51 190.42, 1.25 178.35, 0 158 M32 190 C12.71 191.96, -1.26 177.79, 0 158 M0 158 C-1.85 126.91, 0.4 97.21, 0 32 M0 158 C1.08 124.77, 1.04 91.06, 0 32 M0 32 C1.06 8.98, 9.17 1.51, 32 0 M0 32 C0.32 9.23, 11.62 -0.64, 32 0" stroke="#000000" stroke-width="1" fill="none"></path></g><g transform="translate(4074.2747395833367 1339.6126984126981) rotate(0 22.55859375 16.80000000000001)"><text x="22.55859375" y="0" font-family="Helvetica, Segoe UI Emoji" font-size="28px" fill="#000000" text-anchor="middle" style="white-space: pre;" direction="ltr" dominant-baseline="text-before-edge">img</text></g><g transform="translate(4010.1666666666706 1488.0793650793648) rotate(0 87.9306640625 16.80000000000001)"><text x="0" y="0" font-family="Helvetica, Segoe UI Emoji" font-size="28px" fill="#000000" text-anchor="start" style="white-space: pre;" direction="ltr" dominant-baseline="text-before-edge">Game Header</text></g><g transform="translate(4018.5000000000064 1543.0793650793648) rotate(0 87.9169921875 16.799999999999955)"><text x="0" y="0" font-family="Helvetica, Segoe UI Emoji" font-size="28px" fill="#000000" text-anchor="start" style="white-space: pre;" direction="ltr" dominant-baseline="text-before-edge">link to reviews</text></g><g stroke-linecap="round" transform="translate(4009.2109196980855 1597.1126984126981) rotate(0 101.66666666666697 95)"><path d="M32 0 M32 0 C65.13 -0.83, 99.46 0.08, 171.33 0 M32 0 C65.67 -1.81, 99.49 -0.97, 171.33 0 M171.33 0 C192.46 -1.54, 204.01 9.04, 203.33 32 M171.33 0 C192.67 -2.28, 203.25 10.84, 203.33 32 M203.33 32 C203.75 70.85, 201.69 108.43, 203.33 158 M203.33 32 C203.74 75.15, 202.15 119.36, 203.33 158 M203.33 158 C204.27 180.99, 194.47 189.52, 171.33 190 M203.33 158 C203.22 179.33, 190.9 191.3, 171.33 190 M171.33 190 C134.34 189.9, 101.73 188.36, 32 190 M171.33 190 C124.25 189.76, 75.56 190.47, 32 190 M32 190 C10.78 189.03, -1.97 179.47, 0 158 M32 190 C9.2 188.57, 1.71 179.6, 0 158 M0 158 C-0.93 129.12, 0.46 98.94, 0 32 M0 158 C0.13 119.94, 1.26 82.49, 0 32 M0 32 C-1.29 9.69, 11.57 -1.93, 32 0 M0 32 C0.63 10.93, 12.81 0.22, 32 0" stroke="#000000" stroke-width="1" fill="none"></path></g><g transform="translate(4088.3189926147525 1675.312698412698) rotate(0 22.55859375 16.799999999999955)"><text x="22.55859375" y="0" font-family="Helvetica, Segoe UI Emoji" font-size="28px" fill="#000000" text-anchor="middle" style="white-space: pre;" direction="ltr" dominant-baseline="text-before-edge">img</text></g><g transform="translate(3970.8775863647525 1810.4460317460312) rotate(0 133.8134765625 16.799999999999955)"><text x="0" y="0" font-family="Helvetica, Segoe UI Emoji" font-size="28px" fill="#000000" text-anchor="start" style="white-space: pre;" direction="ltr" dominant-baseline="text-before-edge">Game Header (scroll)</text></g><g stroke-linecap="round"><g transform="translate(3915.1666666666733 1578.0793650793648) rotate(0 185.96766713274064 -0.09436849661176439)"><path d="M-0.6 1.12 C61.62 1.01, 310.65 0.6, 372.54 0.53 M1.28 0.66 C63.49 0.7, 310.07 -1, 372.05 -1.31" stroke="#000000" stroke-width="1" fill="none"></path></g></g><mask></mask><g transform="translate(1710.1666666666733 142.44603174603174) rotate(0 59.8095703125 21.599999999999994)"><text x="0" y="0" font-family="Helvetica, Segoe UI Emoji" font-size="36px" fill="#2b8a3e" text-anchor="start" style="white-space: pre;" direction="ltr" dominant-baseline="text-before-edge">Path "/"</text></g><g transform="translate(2899.892649332689 185.64603174603167) rotate(0 120.8232421875 21.599999999999994)"><text x="0" y="0" font-family="Helvetica, Segoe UI Emoji" font-size="36px" fill="#2b8a3e" text-anchor="start" style="white-space: pre;" direction="ltr" dominant-baseline="text-before-edge">Path "/reviews"</text></g><g transform="translate(2893.3686319987046 1043.1460317460317) rotate(0 142.857421875 21.600000000000023)"><text x="0" y="0" font-family="Helvetica, Segoe UI Emoji" font-size="36px" fill="#2b8a3e" text-anchor="start" style="white-space: pre;" direction="ltr" dominant-baseline="text-before-edge">Path "/categories"</text></g><g transform="translate(4000.8686319987046 180.64603174603167) rotate(0 206.859375 21.599999999999994)"><text x="0" y="0" font-family="Helvetica, Segoe UI Emoji" font-size="36px" fill="#2b8a3e" text-anchor="start" style="white-space: pre;" direction="ltr" dominant-baseline="text-before-edge">Path "/reviews/:review_id"</text></g><g transform="translate(3931.7105967203843 1058.1460317460317) rotate(0 276.9345703125 21.600000000000023)"><text x="0" y="0" font-family="Helvetica, Segoe UI Emoji" font-size="36px" fill="#2b8a3e" text-anchor="start" style="white-space: pre;" direction="ltr" dominant-baseline="text-before-edge">Path "/categories/:category_name"</text></g><g stroke-linecap="round" transform="translate(4719.055555555561 291.9682539682533) rotate(0 207.77777777777783 357.7777777777778)"><path d="M32 0 M32 0 C134.39 0.18, 235.57 1.36, 383.56 0 M32 0 C132.25 -2.04, 231.23 -1.44, 383.56 0 M383.56 0 C403.44 -0.37, 414.79 11.1, 415.56 32 M383.56 0 C404.76 -0.13, 414.45 8.72, 415.56 32 M415.56 32 C414.07 223.85, 413.09 416.09, 415.56 683.56 M415.56 32 C416.25 233.6, 416.09 435.26, 415.56 683.56 M415.56 683.56 C413.87 704.59, 406.25 717.02, 383.56 715.56 M415.56 683.56 C414.92 704.66, 403.27 717.72, 383.56 715.56 M383.56 715.56 C309.37 716.27, 234.77 716.05, 32 715.56 M383.56 715.56 C273.96 716.88, 165.81 717.54, 32 715.56 M32 715.56 C9.29 714.52, -0.97 704.39, 0 683.56 M32 715.56 C8.89 713.7, 1.53 706.89, 0 683.56 M0 683.56 C-1.12 476.3, -0.49 268.83, 0 32 M0 683.56 C0.64 438.7, 1.21 193.25, 0 32 M0 32 C-0.96 11.21, 12 1.68, 32 0 M0 32 C2.14 12.41, 11.12 -0.97, 32 0" stroke="#000000" stroke-width="1" fill="none"></path></g><g stroke-linecap="round"><g transform="translate(4776.277777777782 372.1904761904754) rotate(0 144.56743164787076 -0.044091234307217064)"><path d="M0.13 -1.09 C48.04 -1.13, 240.02 -1.2, 288.13 -0.99 M-1.26 0.96 C46.97 1.18, 242.19 0.97, 290.39 0.55" stroke="#000000" stroke-width="1" fill="none"></path></g></g><mask></mask><g transform="translate(4893.277777777782 333.19047619047547) rotate(0 31.1376953125 12)"><text x="0" y="0" font-family="Helvetica, Segoe UI Emoji" font-size="20px" fill="#000000" text-anchor="start" style="white-space: pre;" direction="ltr" dominant-baseline="text-before-edge">header</text></g><g transform="translate(4798.26190476191 418.92460317460245) rotate(0 62.2548828125 16.799999999999997)"><text x="0" y="0" font-family="Helvetica, Segoe UI Emoji" font-size="28px" fill="#000000" text-anchor="start" style="white-space: pre;" direction="ltr" dominant-baseline="text-before-edge">username</text></g><g stroke-linecap="round" transform="translate(4781.595238095243 411.8412698412691) rotate(0 158.12500000000045 69.58333333333331)"><path d="M32 0 M32 0 C84.6 1.57, 138.98 1.39, 284.25 0 M32 0 C96.22 -1.14, 161.31 -0.81, 284.25 0 M284.25 0 C305.47 -0.11, 315.29 8.97, 316.25 32 M284.25 0 C305.46 -1.89, 317.13 12.54, 316.25 32 M316.25 32 C316.13 53.28, 314.26 73.68, 316.25 107.17 M316.25 32 C315.16 56.16, 316.69 81.36, 316.25 107.17 M316.25 107.17 C315.7 128.3, 304.17 141.05, 284.25 139.17 M316.25 107.17 C314.26 130.15, 305.47 140.66, 284.25 139.17 M284.25 139.17 C192.73 140.72, 102.1 138.6, 32 139.17 M284.25 139.17 C223.37 139.61, 163.21 139.82, 32 139.17 M32 139.17 C9.12 137.55, 1.33 130.24, 0 107.17 M32 139.17 C11.08 139.63, -1.14 126.8, 0 107.17 M0 107.17 C1.49 84.4, -1.8 61.92, 0 32 M0 107.17 C-1.19 80.54, -0.04 54.21, 0 32 M0 32 C1.86 12.18, 11.06 -0.84, 32 0 M0 32 C2.07 9.1, 11.25 -0.62, 32 0" stroke="#000000" stroke-width="1" fill="none"></path></g><g transform="translate(4900.345238095244 480.591269841269) rotate(0 57.572265625 16.8)"><text x="0" y="0" font-family="Helvetica, Segoe UI Emoji" font-size="28px" fill="#000000" text-anchor="start" style="white-space: pre;" direction="ltr" dominant-baseline="text-before-edge">comment</text></g><g stroke-linecap="round"><g transform="translate(4290.166666666674 936.4126984126978) rotate(0 215.20049455014396 -166.53188363077737)"><path d="M-0.01 -0.78 C71.79 -56.04, 360.07 -277.45, 431.87 -332.7 M-1.47 1.42 C70.09 -54.09, 358.58 -278.57, 431.03 -334.49" stroke="#2b8a3e" stroke-width="1" fill="none"></path></g></g><mask></mask><g transform="translate(4802.041666666674 585.5793650793644) rotate(0 62.2548828125 16.799999999999997)"><text x="0" y="0" font-family="Helvetica, Segoe UI Emoji" font-size="28px" fill="#000000" text-anchor="start" style="white-space: pre;" direction="ltr" dominant-baseline="text-before-edge">username</text></g><g stroke-linecap="round" transform="translate(4785.375000000006 578.4960317460311) rotate(0 158.12500000000045 69.58333333333331)"><path d="M32 0 M32 0 C126.31 2.67, 221.77 1.88, 284.25 0 M32 0 C120.9 -0.68, 209.36 -0.64, 284.25 0 M284.25 0 C306.95 -0.27, 316.68 11.18, 316.25 32 M284.25 0 C305.67 2.18, 315.49 9.86, 316.25 32 M316.25 32 C316.54 56.05, 314.61 83.47, 316.25 107.17 M316.25 32 C315 56.57, 315.38 80.15, 316.25 107.17 M316.25 107.17 C316.35 128.52, 305.97 141.07, 284.25 139.17 M316.25 107.17 C315.02 130.24, 307.86 139.37, 284.25 139.17 M284.25 139.17 C215.47 139.87, 144.73 139.59, 32 139.17 M284.25 139.17 C217.19 137.34, 150.89 137.25, 32 139.17 M32 139.17 C11.11 141.01, 1.51 126.92, 0 107.17 M32 139.17 C8.92 138.67, 1.05 130.18, 0 107.17 M0 107.17 C-1.22 81.73, 0.35 59.91, 0 32 M0 107.17 C-0.11 78.2, -0.2 48.06, 0 32 M0 32 C-0.42 10.7, 9.06 1.38, 32 0 M0 32 C1.64 10.86, 10.25 -1.87, 32 0" stroke="#000000" stroke-width="1" fill="none"></path></g><g transform="translate(4904.125000000008 647.246031746031) rotate(0 57.572265625 16.799999999999997)"><text x="0" y="0" font-family="Helvetica, Segoe UI Emoji" font-size="28px" fill="#000000" text-anchor="start" style="white-space: pre;" direction="ltr" dominant-baseline="text-before-edge">comment</text></g><g stroke-linecap="round" transform="translate(4776.833333333341 784.746031746031) rotate(0 154.16666666666652 65.83333333333331)"><path d="M32 0 M32 0 C91.58 -0.91, 148.26 -0.09, 276.33 0 M32 0 C119.72 0.05, 207.31 -1.22, 276.33 0 M276.33 0 C298.3 -0.5, 308.06 11.78, 308.33 32 M276.33 0 C297.92 0.07, 310.3 10.83, 308.33 32 M308.33 32 C307.09 56.43, 309.92 76.47, 308.33 99.67 M308.33 32 C307.97 56.99, 307.99 80.37, 308.33 99.67 M308.33 99.67 C307.12 121.04, 299.15 131.19, 276.33 131.67 M308.33 99.67 C310.07 121.96, 298.69 133.41, 276.33 131.67 M276.33 131.67 C192.71 131.41, 107.29 129.97, 32 131.67 M276.33 131.67 C199.99 130.02, 123 129.38, 32 131.67 M32 131.67 C10.37 133.21, -0.1 122.36, 0 99.67 M32 131.67 C8.82 133.01, 2 120.04, 0 99.67 M0 99.67 C0.04 78.59, -1.47 61.56, 0 32 M0 99.67 C-0.04 75.62, 1.07 50.74, 0 32 M0 32 C-1.22 9.7, 12.11 -0.54, 32 0 M0 32 C1.33 8.37, 11.82 -1.76, 32 0" stroke="#000000" stroke-width="1" fill="none"></path></g><g stroke-linecap="round" transform="translate(4810.166666666674 828.0793650793645) rotate(0 80 26.599999999999994)"><path d="M13.3 0 M13.3 0 C56.9 2.43, 104.13 -0.69, 146.7 0 M13.3 0 C61.76 -0.83, 108.49 -0.49, 146.7 0 M146.7 0 C157.01 -0.54, 161.16 2.43, 160 13.3 M146.7 0 C156.72 -1.76, 161.94 5.05, 160 13.3 M160 13.3 C160.06 20.23, 158.08 22.38, 160 39.9 M160 13.3 C159.29 23.78, 160.82 34.07, 160 39.9 M160 39.9 C160.12 47.88, 154.71 51.39, 146.7 53.2 M160 39.9 C160.09 46.63, 153.78 55.5, 146.7 53.2 M146.7 53.2 C118.79 52.93, 92.36 51.59, 13.3 53.2 M146.7 53.2 C114.11 52.4, 83.87 52.43, 13.3 53.2 M13.3 53.2 C3.06 53.09, -0.05 47.04, 0 39.9 M13.3 53.2 C2.34 53.24, 1.93 47, 0 39.9 M0 39.9 C0.76 33.82, -1.55 24.31, 0 13.3 M0 39.9 C0.7 33.44, 0.4 26.33, 0 13.3 M0 13.3 C-0.47 3.85, 3.08 -1.67, 13.3 0 M0 13.3 C-0.55 5.52, 3.79 -0.24, 13.3 0" stroke="#000000" stroke-width="1" fill="none"></path></g><g transform="translate(4816.145182291674 833.0793650793645) rotate(0 74.021484375 21.599999999999994)"><text x="74.021484375" y="0" font-family="Helvetica, Segoe UI Emoji" font-size="36px" fill="#000000" text-anchor="middle" style="white-space: pre;" direction="ltr" dominant-baseline="text-before-edge">comment</text></g><g stroke-linecap="round" transform="translate(4991.833333333341 833.0793650793645) rotate(0 36.666666666666515 26.599999999999994)"><path d="M13.3 0 M13.3 0 C27.23 2.1, 39.56 -0.21, 60.03 0 M13.3 0 C25.02 -1, 35.02 -0.41, 60.03 0 M60.03 0 C69.74 1.45, 74.96 6.06, 73.33 13.3 M60.03 0 C70.08 2.26, 72.79 3.76, 73.33 13.3 M73.33 13.3 C74.06 18.93, 72.9 24.12, 73.33 39.9 M73.33 13.3 C73.77 20.78, 73.89 30.09, 73.33 39.9 M73.33 39.9 C74.52 48.73, 68.05 52.32, 60.03 53.2 M73.33 39.9 C74.81 47.98, 67.17 52.31, 60.03 53.2 M60.03 53.2 C42.28 52.45, 27.67 52.19, 13.3 53.2 M60.03 53.2 C44.05 52.83, 27.58 52.61, 13.3 53.2 M13.3 53.2 C3.43 53.51, 1.89 49.8, 0 39.9 M13.3 53.2 C3.95 54.75, -0.63 49.41, 0 39.9 M0 39.9 C-1.42 30.4, -0.82 23.48, 0 13.3 M0 39.9 C0.33 29.93, 0.67 20.62, 0 13.3 M0 13.3 C-1.73 3.33, 5.4 1.59, 13.3 0 M0 13.3 C-1.36 2.56, 4.17 -2.1, 13.3 0" stroke="#000000" stroke-width="1" fill="none"></path></g><g transform="translate(5013.378906250007 850.0793650793645) rotate(0 15.12109375 9.599999999999994)"><text x="15.12109375" y="0" font-family="Helvetica, Segoe UI Emoji" font-size="16px" fill="#000000" text-anchor="middle" style="white-space: pre;" direction="ltr" dominant-baseline="text-before-edge">post</text></g><g transform="translate(5035.166666666674 688.0793650793645) rotate(0 21.796875 9.599999999999994)"><text x="0" y="0" font-family="Helvetica, Segoe UI Emoji" font-size="16px" fill="#000000" text-anchor="start" style="white-space: pre;" direction="ltr" dominant-baseline="text-before-edge">delete</text></g><g transform="translate(5025.862620035815 518.4793650793644) rotate(0 21.796875 9.6)"><text x="0" y="0" font-family="Helvetica, Segoe UI Emoji" font-size="16px" fill="#000000" text-anchor="start" style="white-space: pre;" direction="ltr" dominant-baseline="text-before-edge">delete</text></g><g transform="translate(1653.5 1236.7460317460327) rotate(0 32.02734375 21.600000000000023)"><text x="0" y="0" font-family="Helvetica, Segoe UI Emoji" font-size="36px" fill="#000000" text-anchor="start" style="white-space: pre;" direction="ltr" dominant-baseline="text-before-edge">App</text></g><g transform="translate(1711 1401.2460317460327) rotate(0 59.0361328125 21.600000000000023)"><text x="0" y="0" font-family="Helvetica, Segoe UI Emoji" font-size="36px" fill="#087f5b" text-anchor="start" style="white-space: pre;" direction="ltr" dominant-baseline="text-before-edge">Header</text></g><g transform="translate(876 1402.7460317460327) rotate(0 115.03125 21.600000000000023)"><text x="0" y="0" font-family="Helvetica, Segoe UI Emoji" font-size="36px" fill="#c92a2a" text-anchor="start" style="white-space: pre;" direction="ltr" dominant-baseline="text-before-edge">ListOfReviews</text></g><g transform="translate(1901 1408.7460317460327) rotate(0 134.0595703125 21.600000000000023)"><text x="0" y="0" font-family="Helvetica, Segoe UI Emoji" font-size="36px" fill="#862e9c" text-anchor="start" style="white-space: pre;" direction="ltr" dominant-baseline="text-before-edge">ListOfCategories</text></g><g transform="translate(896 1635.2460317460327) rotate(0 97.7080078125 21.600000000000023)"><text x="0" y="0" font-family="Helvetica, Segoe UI Emoji" font-size="36px" fill="#1864ab" text-anchor="start" style="white-space: pre;" direction="ltr" dominant-baseline="text-before-edge">ViewReview</text></g><g transform="translate(1953.5 1596.2460317460327) rotate(0 111.7265625 21.600000000000023)"><text x="0" y="0" font-family="Helvetica, Segoe UI Emoji" font-size="36px" fill="#a61e4d" text-anchor="start" style="white-space: pre;" direction="ltr" dominant-baseline="text-before-edge">ViewCategory</text></g><g transform="translate(913.5 1840.2460317460327) rotate(0 87.0205078125 21.600000000000023)"><text x="0" y="0" font-family="Helvetica, Segoe UI Emoji" font-size="36px" fill="#1864ab" text-anchor="start" style="white-space: pre;" direction="ltr" dominant-baseline="text-before-edge">Comments</text></g><g transform="translate(1573.5 1398.7460317460327) rotate(0 48.0146484375 21.600000000000023)"><text x="0" y="0" font-family="Helvetica, Segoe UI Emoji" font-size="36px" fill="#000000" text-anchor="start" style="white-space: pre;" direction="ltr" dominant-baseline="text-before-edge">Home</text></g><g stroke-linecap="round"><g transform="translate(1609 1284.7460317460327) rotate(0 -293.01144155389625 46.88297078958715)"><path d="M-0.01 0.19 C-97.59 15.87, -487.53 79.04, -585.38 94.53 M-1.48 -0.76 C-99.17 14.52, -488.79 76.89, -586.01 92.68" stroke="#000000" stroke-width="1" fill="none"></path></g></g><mask></mask><g stroke-linecap="round"><g transform="translate(986 1532.7460317460327) rotate(0 -1.6914821123236834 36.232873253589446)"><path d="M0.33 0.13 C-0.08 12.43, -2.37 61.16, -2.67 73.32 M-0.96 -0.85 C-1.52 11.17, -3.58 59.64, -3.71 71.63" stroke="#000000" stroke-width="1" fill="none"></path></g></g><mask></mask><g stroke-linecap="round"><g transform="translate(996 1712.7460317460327) rotate(0 1.0868851767349952 43.92352912090712)"><path d="M0.8 -0.66 C1.04 14.06, 1.96 72.48, 2.41 87.15 M-0.24 1.61 C-0.26 16.6, 0.83 74, 1.42 88.51" stroke="#000000" stroke-width="1" fill="none"></path></g></g><mask></mask><g stroke-linecap="round"><g transform="translate(1663.5 1318.7460317460327) rotate(0 -12.604372402038507 33.198527369564374)"><path d="M-0.66 1.12 C-5.02 11.92, -21.09 55.21, -25.3 65.73 M1.19 0.66 C-3.42 11.03, -22.29 53.25, -26.4 64" stroke="#000000" stroke-width="1" fill="none"></path></g></g><mask></mask><g stroke-linecap="round"><g transform="translate(1721 1313.7460317460327) rotate(0 13.755377948656815 37.56160936675968)"><path d="M0.29 -1.02 C4.86 11.63, 24.17 62.02, 28.52 74.74 M-1.01 1.05 C3.39 14, 23.16 63.52, 28.11 76.15" stroke="#000000" stroke-width="1" fill="none"></path></g></g><mask></mask><g stroke-linecap="round"><g transform="translate(1753.5 1288.7460317460327) rotate(0 122.39782403894696 48.418370731836205)"><path d="M0.21 -0.56 C41.3 15.4, 205.04 79.88, 245.93 96.42 M-1.14 1.77 C39.92 17.77, 204.43 81.53, 245.48 97.39" stroke="#000000" stroke-width="1" fill="none"></path></g></g><mask></mask><g stroke-linecap="round"><g transform="translate(2048.5 1503.7460317460327) rotate(0 0.22177916794066732 36.62538266994068)"><path d="M-0.94 -0.38 C-1.17 11.86, -0.78 61.27, -0.82 73.91 M0.77 -1.62 C0.87 10.68, 1.4 62.38, 1.46 74.87" stroke="#000000" stroke-width="1" fill="none"></path></g></g><mask></mask><g transform="translate(172 1280.246031746033) rotate(0 334.6259765625 21.600000000000023)"><text x="0" y="0" font-family="Helvetica, Segoe UI Emoji" font-size="36px" fill="#c92a2a" text-anchor="start" style="white-space: pre;" direction="ltr" dominant-baseline="text-before-edge">const [reviews, setReviews] = useState([])</text></g><g transform="translate(144 1563.7460317460327) rotate(0 317.654296875 21.600000000000023)"><text x="0" y="0" font-family="Helvetica, Segoe UI Emoji" font-size="36px" fill="#1864ab" text-anchor="start" style="white-space: pre;" direction="ltr" dominant-baseline="text-before-edge">const [review, setReview] = useState({})</text></g><g transform="translate(10 1631.7460317460327) rotate(0 378.6416015625 21.600000000000023)"><text x="0" y="0" font-family="Helvetica, Segoe UI Emoji" font-size="36px" fill="#1864ab" text-anchor="start" style="white-space: pre;" direction="ltr" dominant-baseline="text-before-edge">const [comments, SetComments] = useState([])</text></g><g transform="translate(558 1716.2460317460327) rotate(0 169 90)" stroke="none"><path fill="#1864ab" d="M 1.56,0 Q 1.56,0 1.52,2.29 1.49,4.58 2.58,8.22 3.67,11.87 6.93,16.78 10.20,21.70 16.73,28.96 23.26,36.22 31.79,45.08 40.33,53.94 51.37,62.83 62.42,71.72 75.73,81.25 89.04,90.79 104.46,100.58 119.87,110.37 136.19,119.70 152.50,129.03 168.57,135.84 184.65,142.66 202.40,149.00 220.15,155.35 234.60,160.35 249.05,165.35 261.47,168.62 273.89,171.88 283.15,173.26 292.40,174.64 299.82,175.80 307.24,176.97 312.65,177.46 318.06,177.95 321.50,178.16 324.94,178.37 327.41,177.90 329.88,177.42 332.16,177.22 334.45,177.02 335.78,175.86 337.11,174.71 337.34,174.60 337.57,174.49 337.82,174.46 338.07,174.43 338.32,174.49 338.56,174.54 338.78,174.67 339.00,174.80 339.16,174.99 339.33,175.18 339.42,175.41 339.52,175.65 339.54,175.90 339.55,176.15 339.48,176.40 339.42,176.64 339.28,176.85 339.14,177.06 338.94,177.22 338.74,177.37 338.50,177.45 338.26,177.54 338.01,177.54 337.75,177.54 337.51,177.46 337.27,177.38 337.07,177.23 336.87,177.08 336.72,176.87 336.58,176.66 336.51,176.42 336.44,176.17 336.45,175.92 336.47,175.67 336.56,175.43 336.65,175.20 336.81,175.00 336.97,174.81 337.19,174.68 337.41,174.55 337.65,174.49 337.90,174.43 338.15,174.46 338.40,174.49 338.63,174.59 338.86,174.69 339.05,174.87 339.23,175.04 339.35,175.26 339.47,175.49 339.52,175.73 339.56,175.98 339.52,176.23 339.48,176.48 339.36,176.71 339.25,176.93 339.06,177.11 338.88,177.28 338.88,177.28 338.88,177.28 336.86,178.43 334.85,179.58 332.60,179.79 330.36,180.00 327.58,180.50 324.80,180.99 321.31,180.78 317.82,180.57 312.33,180.07 306.83,179.57 299.42,178.40 292.02,177.24 282.62,175.83 273.23,174.43 260.71,171.14 248.19,167.85 233.72,162.84 219.26,157.84 201.43,151.47 183.61,145.09 167.40,138.21 151.18,131.33 134.81,121.98 118.45,112.62 102.96,102.79 87.48,92.97 74.10,83.40 60.72,73.82 49.54,64.83 38.37,55.83 29.78,46.95 21.20,38.07 14.53,30.66 7.85,23.25 4.38,17.99 0.92,12.73 -0.28,8.67 -1.49,4.61 -1.52,2.30 -1.56,0 -1.53,-0.18 -1.51,-0.37 -1.45,-0.54 -1.38,-0.72 -1.27,-0.88 -1.16,-1.03 -1.02,-1.16 -0.88,-1.28 -0.72,-1.37 -0.55,-1.46 -0.37,-1.50 -0.18,-1.55 0.00,-1.55 0.18,-1.55 0.37,-1.50 0.55,-1.46 0.72,-1.37 0.88,-1.28 1.02,-1.16 1.16,-1.03 1.27,-0.88 1.38,-0.72 1.45,-0.54 1.51,-0.37 1.53,-0.18 1.56,0.00 1.56,0.00 L 1.56,0 Z"></path></g><g transform="translate(2060 1326.246031746033) rotate(0 267.134765625 43.19999999999999)"><text x="0" y="0" font-family="Helvetica, Segoe UI Emoji" font-size="36px" fill="#862e9c" text-anchor="start" style="white-space: pre;" direction="ltr" dominant-baseline="text-before-edge">const [categories, setCategories] </text><text x="0" y="43.199999999999996" font-family="Helvetica, Segoe UI Emoji" font-size="36px" fill="#862e9c" text-anchor="start" style="white-space: pre;" direction="ltr" dominant-baseline="text-before-edge">            = useState([])</text></g><g transform="translate(2179.9999999999995 1556.2460317460327) rotate(0 232.7783203125 43.200000000000045)"><text x="0" y="0" font-family="Helvetica, Segoe UI Emoji" font-size="36px" fill="#a61e4d" text-anchor="start" style="white-space: pre;" direction="ltr" dominant-baseline="text-before-edge">const [category, setCategory]</text><text x="0" y="43.199999999999996" font-family="Helvetica, Segoe UI Emoji" font-size="36px" fill="#a61e4d" text-anchor="start" style="white-space: pre;" direction="ltr" dominant-baseline="text-before-edge">    = useState([])</text></g><g stroke-linecap="round" transform="translate(1777.166666666666 537.7460317460328) rotate(0 133.5 22.5)"><path d="M11.25 0 M11.25 0 C75.26 -1.89, 135.87 -3.31, 255.75 0 M11.25 0 C81.26 -0.4, 151.82 0.13, 255.75 0 M255.75 0 C262.89 -1.48, 268.27 4.13, 267 11.25 M255.75 0 C264.78 1.69, 268.21 5.41, 267 11.25 M267 11.25 C268.62 17.98, 266.21 23.83, 267 33.75 M267 11.25 C266.36 19.62, 266.74 27.04, 267 33.75 M267 33.75 C266.35 40.95, 265.01 44.81, 255.75 45 M267 33.75 C266.12 42.15, 264.18 45.67, 255.75 45 M255.75 45 C196 46.86, 137.82 46.74, 11.25 45 M255.75 45 C171.07 44.57, 86.43 44.45, 11.25 45 M11.25 45 C4.25 43.11, 0.97 42.74, 0 33.75 M11.25 45 C5.28 44.84, 0.55 41.83, 0 33.75 M0 33.75 C0.77 24.23, -0.74 17.15, 0 11.25 M0 33.75 C1.02 25.57, -0.72 18.48, 0 11.25 M0 11.25 C-0.23 2.55, 4.82 -0.12, 11.25 0 M0 11.25 C-0.06 4.82, 5.18 -0.61, 11.25 0" stroke="#000000" stroke-width="1" fill="none"></path></g><g transform="translate(1877.666666666666 543.2460317460328) rotate(0 41.6748046875 12)"><text x="0" y="0" font-family="Helvetica, Segoe UI Emoji" font-size="20px" fill="#000000" text-anchor="start" style="white-space: pre;" direction="ltr" dominant-baseline="text-before-edge">members</text></g><g stroke-linecap="round" transform="translate(914.8888888888891 254.46825396825494) rotate(0 207.77777777777783 357.7777777777778)"><path d="M32 0 M32 0 C155.75 0.92, 280.76 0.2, 383.56 0 M32 0 C147.25 2.23, 262.39 1.9, 383.56 0 M383.56 0 C403.94 0, 416.29 12.55, 415.56 32 M383.56 0 C405.26 -2.04, 416.96 11.08, 415.56 32 M415.56 32 C414.18 170.25, 414.23 310.3, 415.56 683.56 M415.56 32 C414.63 266.74, 414.55 501.23, 415.56 683.56 M415.56 683.56 C416.31 706.36, 405.5 716.51, 383.56 715.56 M415.56 683.56 C414.1 706.49, 403.84 715.25, 383.56 715.56 M383.56 715.56 C292.31 713.48, 200.33 714.44, 32 715.56 M383.56 715.56 C261.65 714.3, 140.22 714.66, 32 715.56 M32 715.56 C10.66 714.04, 1.55 706.08, 0 683.56 M32 715.56 C8.57 715.16, 0.52 704.13, 0 683.56 M0 683.56 C-0.48 463.21, -0.06 243.57, 0 32 M0 683.56 C-0.37 540.65, 0.37 396.91, 0 32 M0 32 C-0.14 11.97, 9.55 -0.45, 32 0 M0 32 C-1.27 9.45, 12 -1.82, 32 0" stroke="#000000" stroke-width="1" fill="none"></path></g><g stroke-linecap="round"><g transform="translate(972.11111111111 334.6904761904771) rotate(0 144.68856152109788 -0.4468150775879707)"><path d="M-0.26 0.39 C47.83 0.22, 241.37 -1.14, 289.64 -1.28 M1.8 -0.45 C49.69 -0.42, 241.2 0.45, 289.03 0.11" stroke="#000000" stroke-width="1" fill="none"></path></g></g><mask></mask><g transform="translate(1089.11111111111 295.6904761904771) rotate(0 31.1376953125 12)"><text x="0" y="0" font-family="Helvetica, Segoe UI Emoji" font-size="20px" fill="#000000" text-anchor="start" style="white-space: pre;" direction="ltr" dominant-baseline="text-before-edge">header</text></g><g stroke-linecap="round" transform="translate(981.0000000000005 392.246031746033) rotate(0 147.22222222222217 36.111111111111114)"><path d="M18.06 0 M18.06 0 C89.53 -0.65, 162.48 -2.48, 276.39 0 M18.06 0 C89.43 0.93, 160.93 1.6, 276.39 0 M276.39 0 C290.31 0.32, 292.67 7.24, 294.44 18.06 M276.39 0 C288.84 -2, 292.89 6.3, 294.44 18.06 M294.44 18.06 C295.75 31.83, 293.68 43.43, 294.44 54.17 M294.44 18.06 C294.23 26.87, 295.24 35.23, 294.44 54.17 M294.44 54.17 C295.4 64.94, 289.82 71.31, 276.39 72.22 M294.44 54.17 C294.13 65.34, 289.29 71.01, 276.39 72.22 M276.39 72.22 C179.11 74.97, 82.43 73.52, 18.06 72.22 M276.39 72.22 C207.37 72.38, 137.51 73, 18.06 72.22 M18.06 72.22 C7.21 70.4, -0.34 66.66, 0 54.17 M18.06 72.22 C5.26 73.09, 0.44 65.99, 0 54.17 M0 54.17 C0.42 41.65, 0.15 31.43, 0 18.06 M0 54.17 C-1.08 46.39, 0.42 38.2, 0 18.06 M0 18.06 C-0.45 4.92, 4.96 1.16, 18.06 0 M0 18.06 C-1.82 4.77, 6.48 2.24, 18.06 0" stroke="#000000" stroke-width="1" fill="none"></path></g><g stroke-linecap="round" transform="translate(980.4444444444457 492.80158730158854) rotate(0 147.22222222222217 36.111111111111114)"><path d="M18.06 0 M18.06 0 C104.36 1.22, 188.38 0.11, 276.39 0 M18.06 0 C106.45 0.16, 195.9 0.92, 276.39 0 M276.39 0 C288.75 -1.77, 295.67 6.38, 294.44 18.06 M276.39 0 C286.43 -1.56, 294.73 7.13, 294.44 18.06 M294.44 18.06 C295.85 25.73, 294.87 33.08, 294.44 54.17 M294.44 18.06 C294.51 30.26, 294.43 41.47, 294.44 54.17 M294.44 54.17 C293.18 67.6, 287.52 71.95, 276.39 72.22 M294.44 54.17 C293.58 67.06, 287.21 73.99, 276.39 72.22 M276.39 72.22 C217.04 73.19, 155.5 71.84, 18.06 72.22 M276.39 72.22 C209.17 71.93, 142.59 73.01, 18.06 72.22 M18.06 72.22 C4.2 71.88, 0.46 65.54, 0 54.17 M18.06 72.22 C6.89 72.67, -0.22 66.25, 0 54.17 M0 54.17 C-1.81 44.66, -1.12 33.38, 0 18.06 M0 54.17 C-0.43 41.7, -0.92 27.72, 0 18.06 M0 18.06 C-1.1 4.96, 7.18 -1.59, 18.06 0 M0 18.06 C-1.25 6.48, 8.26 -0.87, 18.06 0" stroke="#000000" stroke-width="1" fill="none"></path></g><g stroke-linecap="round" transform="translate(974.888888888891 602.8015873015886) rotate(0 147.22222222222217 36.111111111111114)"><path d="M18.06 0 M18.06 0 C110.06 -1.96, 200.22 0.11, 276.39 0 M18.06 0 C79.26 1.27, 141.23 1.11, 276.39 0 M276.39 0 C286.66 1.22, 294.8 4.28, 294.44 18.06 M276.39 0 C286.87 0.28, 295.55 4.33, 294.44 18.06 M294.44 18.06 C294.22 31.1, 293.4 44.04, 294.44 54.17 M294.44 18.06 C295.08 26.04, 294.82 32.78, 294.44 54.17 M294.44 54.17 C295.84 65.29, 288.16 71.47, 276.39 72.22 M294.44 54.17 C295.31 64.99, 290.2 70.67, 276.39 72.22 M276.39 72.22 C174.76 72.48, 70.98 72.54, 18.06 72.22 M276.39 72.22 C196.31 72.84, 117.93 71.48, 18.06 72.22 M18.06 72.22 C5.68 72.68, -0.66 66.96, 0 54.17 M18.06 72.22 C6.46 72, 0.05 65.37, 0 54.17 M0 54.17 C-0.03 40.4, -1.78 29.73, 0 18.06 M0 54.17 C0.96 39.19, 0.08 24.78, 0 18.06 M0 18.06 C-1.06 7.18, 4.43 -1.09, 18.06 0 M0 18.06 C0.46 8.26, 5.15 -0.95, 18.06 0" stroke="#000000" stroke-width="1" fill="none"></path></g><g stroke-linecap="round" transform="translate(978.2222222222249 719.4682539682553) rotate(0 147.22222222222217 36.111111111111114)"><path d="M18.06 0 M18.06 0 C88.12 -1.32, 161.64 -1.96, 276.39 0 M18.06 0 C93.8 0.76, 169.08 -0.71, 276.39 0 M276.39 0 C289.65 0.36, 292.71 4.66, 294.44 18.06 M276.39 0 C288.71 1.11, 292.75 7.28, 294.44 18.06 M294.44 18.06 C294.89 30.4, 295.01 43.64, 294.44 54.17 M294.44 18.06 C294.88 28.36, 293.95 38.41, 294.44 54.17 M294.44 54.17 C293.53 65.93, 287.67 72.97, 276.39 72.22 M294.44 54.17 C293.23 67.97, 286.88 74.44, 276.39 72.22 M276.39 72.22 C196.41 72.76, 117.2 73.41, 18.06 72.22 M276.39 72.22 C195.64 71.13, 112.92 70.52, 18.06 72.22 M18.06 72.22 C6.47 71.56, 0.75 66.59, 0 54.17 M18.06 72.22 C5.8 72.27, -0.83 67.49, 0 54.17 M0 54.17 C-0.63 41.09, 1.55 33.46, 0 18.06 M0 54.17 C-0.53 46.18, -0.53 38.12, 0 18.06 M0 18.06 C1.16 4.43, 4.93 0.4, 18.06 0 M0 18.06 C2.24 5.15, 5.07 -0.38, 18.06 0" stroke="#000000" stroke-width="1" fill="none"></path></g><g stroke-linecap="round" transform="translate(982.6666666666683 837.2460317460332) rotate(0 147.22222222222217 36.111111111111114)"><path d="M18.06 0 M18.06 0 C102.48 2.48, 186.64 1.65, 276.39 0 M18.06 0 C84.11 -0.63, 147.95 -0.27, 276.39 0 M276.39 0 C288.78 -1.74, 293.09 6.27, 294.44 18.06 M276.39 0 C289.53 -1.69, 295.71 7.82, 294.44 18.06 M294.44 18.06 C293.03 31.41, 292.61 43.51, 294.44 54.17 M294.44 18.06 C295.19 29.62, 295.41 41.99, 294.44 54.17 M294.44 54.17 C294.18 65.45, 289.17 71.17, 276.39 72.22 M294.44 54.17 C296.22 64.65, 290.65 72.38, 276.39 72.22 M276.39 72.22 C186.45 70.68, 97.67 71.56, 18.06 72.22 M276.39 72.22 C199.46 73.1, 121.43 74.02, 18.06 72.22 M18.06 72.22 C5.36 72.98, 0.39 66.01, 0 54.17 M18.06 72.22 C6.07 71.39, 1.29 66.53, 0 54.17 M0 54.17 C-1.74 47.49, 1.98 36.6, 0 18.06 M0 54.17 C-0.46 43.03, -0.76 33.57, 0 18.06 M0 18.06 C-1.59 4.93, 6.42 1.95, 18.06 0 M0 18.06 C-0.87 5.07, 5.64 -0.99, 18.06 0" stroke="#000000" stroke-width="1" fill="none"></path></g><g stroke-linecap="round"><g transform="translate(1772.6666666666665 564.2460317460328) rotate(0 -220.21788774720403 -20.314635838940738)"><path d="M-1.15 0.26 C-74.61 -6.39, -367.7 -34.03, -440.89 -40.89 M0.45 -0.65 C-72.62 -7.08, -365.03 -33.26, -438.64 -39.82" stroke="#000000" stroke-width="1" fill="none"></path></g></g><mask></mask><g stroke-linecap="round"><g transform="translate(960.6666666666665 490.2460317460328) rotate(0 -75.88777376390999 -134.24735769651832)"><path d="M0.06 0.97 C-25.12 -43.78, -125.91 -222.6, -151.27 -267.57 M-1.37 0.43 C-26.63 -44.77, -126.58 -224.73, -151.83 -269.47" stroke="#000000" stroke-width="1" fill="none"></path></g></g><mask></mask><g transform="translate(662.6666666666665 160.24603174603283) rotate(0 94.0166015625 21.599999999999994)"><text x="0" y="0" font-family="Helvetica, Segoe UI Emoji" font-size="36px" fill="#e67700" text-anchor="start" style="white-space: pre;" direction="ltr" dominant-baseline="text-before-edge">ListOfUsers</text></g><g stroke-linecap="round"><g transform="translate(1622.6666666666665 1322.2460317460327) rotate(0 -155.29024857691502 41.40579958310349)"><path d="M-1.17 0.15 C-53.01 13.77, -259.49 68.53, -311 82.06 M0.42 -0.82 C-51.06 12.99, -256.89 69.77, -308.82 83.63" stroke="#000000" stroke-width="1" fill="none"></path></g></g><mask></mask><g transform="translate(1228.6666666666665 1428.2460317460327) rotate(0 94.0166015625 21.600000000000023)"><text x="0" y="0" font-family="Helvetica, Segoe UI Emoji" font-size="36px" fill="#e67700" text-anchor="start" style="white-space: pre;" direction="ltr" dominant-baseline="text-before-edge">ListOfUsers</text></g><g transform="translate(1108.0645853678384 1498.6460317460328) rotate(0 188.0595703125 43.19999999999999)"><text x="0" y="0" font-family="Helvetica, Segoe UI Emoji" font-size="36px" fill="#e67700" text-anchor="start" style="white-space: pre;" direction="ltr" dominant-baseline="text-before-edge">const [users, setUsers] </text><text x="0" y="43.199999999999996" font-family="Helvetica, Segoe UI Emoji" font-size="36px" fill="#e67700" text-anchor="start" style="white-space: pre;" direction="ltr" dominant-baseline="text-before-edge">    = useState([])</text></g></svg>